<mxfile host="app.diagrams.net" modified="2023-05-23T08:05:45.473Z" agent="Mozilla/5.0 (Windows NT 10.0; Win64; x64) AppleWebKit/537.36 (KHTML, like Gecko) Chrome/113.0.0.0 Safari/537.36 Edg/113.0.1774.50" etag="xGlxXPc8Jw4FoHgfyTsj" version="21.3.2" type="github">
  <diagram name="第 1 页" id="6-GciFRwSKA-PsZMYHV3">
    <mxGraphModel dx="1311" dy="108" grid="0" gridSize="10" guides="1" tooltips="1" connect="1" arrows="1" fold="1" page="0" pageScale="1" pageWidth="827" pageHeight="1169" math="0" shadow="0">
      <root>
        <mxCell id="0" />
        <mxCell id="1" parent="0" />
        <mxCell id="O8v1P4nGRKo8pIatumZE-4" value="" style="edgeStyle=orthogonalEdgeStyle;rounded=0;orthogonalLoop=1;jettySize=auto;html=1;shape=flexArrow;fontFamily=Lucida Console;exitX=0.5;exitY=1;exitDx=0;exitDy=0;" parent="1" source="7dNYX3P94OAqA5TKhD5H-6" target="O8v1P4nGRKo8pIatumZE-3" edge="1">
          <mxGeometry relative="1" as="geometry">
            <mxPoint x="150" y="610" as="sourcePoint" />
          </mxGeometry>
        </mxCell>
        <mxCell id="O8v1P4nGRKo8pIatumZE-6" value="" style="edgeStyle=orthogonalEdgeStyle;rounded=0;orthogonalLoop=1;jettySize=auto;html=1;shape=flexArrow;fontFamily=Lucida Console;entryX=0.708;entryY=0.1;entryDx=0;entryDy=0;entryPerimeter=0;" parent="1" source="O8v1P4nGRKo8pIatumZE-3" target="O8v1P4nGRKo8pIatumZE-5" edge="1">
          <mxGeometry relative="1" as="geometry" />
        </mxCell>
        <mxCell id="O8v1P4nGRKo8pIatumZE-3" value="CameraManager" style="whiteSpace=wrap;html=1;fillColor=#dae8fc;strokeColor=#6c8ebf;fontFamily=Lucida Console;" parent="1" vertex="1">
          <mxGeometry x="72.5" y="690" width="155" height="40" as="geometry" />
        </mxCell>
        <mxCell id="O8v1P4nGRKo8pIatumZE-8" value="" style="edgeStyle=orthogonalEdgeStyle;rounded=0;orthogonalLoop=1;jettySize=auto;html=1;shape=flexArrow;fontFamily=Lucida Console;" parent="1" source="O8v1P4nGRKo8pIatumZE-5" target="O8v1P4nGRKo8pIatumZE-7" edge="1">
          <mxGeometry relative="1" as="geometry">
            <Array as="points">
              <mxPoint x="150" y="921" />
              <mxPoint x="150" y="921" />
            </Array>
          </mxGeometry>
        </mxCell>
        <mxCell id="O8v1P4nGRKo8pIatumZE-5" value="&lt;font size=&quot;1&quot;&gt;CameraDevice.StateCallback&lt;/font&gt;&lt;br&gt;OnOpened()" style="whiteSpace=wrap;html=1;fillColor=#dae8fc;strokeColor=#6c8ebf;fontFamily=Lucida Console;" parent="1" vertex="1">
          <mxGeometry x="-37.5" y="798" width="265" height="49" as="geometry" />
        </mxCell>
        <mxCell id="O8v1P4nGRKo8pIatumZE-7" value="CreateCaptureSession" style="whiteSpace=wrap;html=1;fillColor=#dae8fc;strokeColor=#6c8ebf;fontFamily=Lucida Console;" parent="1" vertex="1">
          <mxGeometry x="49" y="965" width="195" height="40" as="geometry" />
        </mxCell>
        <mxCell id="O8v1P4nGRKo8pIatumZE-14" value="" style="edgeStyle=orthogonalEdgeStyle;rounded=0;orthogonalLoop=1;jettySize=auto;html=1;shape=flexArrow;fontFamily=Lucida Console;entryX=0.5;entryY=0;entryDx=0;entryDy=0;" parent="1" source="O8v1P4nGRKo8pIatumZE-12" target="7dNYX3P94OAqA5TKhD5H-19" edge="1">
          <mxGeometry relative="1" as="geometry">
            <mxPoint x="427" y="740" as="targetPoint" />
          </mxGeometry>
        </mxCell>
        <mxCell id="O8v1P4nGRKo8pIatumZE-12" value="Build CaptureRequest" style="whiteSpace=wrap;html=1;fillColor=#dae8fc;strokeColor=#6c8ebf;fontFamily=Lucida Console;" parent="1" vertex="1">
          <mxGeometry x="324.5" y="637" width="180" height="40" as="geometry" />
        </mxCell>
        <mxCell id="O8v1P4nGRKo8pIatumZE-16" value="" style="edgeStyle=orthogonalEdgeStyle;rounded=0;orthogonalLoop=1;jettySize=auto;html=1;shape=flexArrow;fontFamily=Lucida Console;" parent="1" source="O8v1P4nGRKo8pIatumZE-13" target="O8v1P4nGRKo8pIatumZE-15" edge="1">
          <mxGeometry relative="1" as="geometry" />
        </mxCell>
        <mxCell id="O8v1P4nGRKo8pIatumZE-13" value="CaptureCallback" style="whiteSpace=wrap;html=1;fillColor=#dae8fc;strokeColor=#6c8ebf;fontFamily=Lucida Console;" parent="1" vertex="1">
          <mxGeometry x="339.25" y="873" width="150.5" height="40" as="geometry" />
        </mxCell>
        <mxCell id="O8v1P4nGRKo8pIatumZE-15" value="End" style="ellipse;whiteSpace=wrap;html=1;fillColor=#ffe6cc;strokeColor=#d79b00;fontFamily=Lucida Console;" parent="1" vertex="1">
          <mxGeometry x="354.5" y="960" width="120" height="50" as="geometry" />
        </mxCell>
        <mxCell id="O8v1P4nGRKo8pIatumZE-17" value="getSystemService" style="text;html=1;align=center;verticalAlign=middle;resizable=0;points=[];autosize=1;strokeColor=none;fillColor=none;fontFamily=Lucida Console;labelBorderColor=none;" parent="1" vertex="1">
          <mxGeometry x="-22" y="632" width="172" height="31" as="geometry" />
        </mxCell>
        <mxCell id="O8v1P4nGRKo8pIatumZE-18" value="open" style="text;html=1;align=center;verticalAlign=middle;resizable=0;points=[];autosize=1;strokeColor=none;fillColor=none;fontFamily=Lucida Console;labelBorderColor=none;" parent="1" vertex="1">
          <mxGeometry x="85" y="737" width="57" height="31" as="geometry" />
        </mxCell>
        <mxCell id="7dNYX3P94OAqA5TKhD5H-5" value="Start" style="ellipse;whiteSpace=wrap;html=1;fillColor=#ffe6cc;strokeColor=#d79b00;fontFamily=Lucida Console;" vertex="1" parent="1">
          <mxGeometry x="90" y="485" width="120" height="50" as="geometry" />
        </mxCell>
        <mxCell id="7dNYX3P94OAqA5TKhD5H-6" value="Set Surface" style="whiteSpace=wrap;html=1;fillColor=#dae8fc;strokeColor=#6c8ebf;fontFamily=Lucida Console;" vertex="1" parent="1">
          <mxGeometry x="72.5" y="583" width="155" height="37" as="geometry" />
        </mxCell>
        <mxCell id="7dNYX3P94OAqA5TKhD5H-9" value="" style="edgeStyle=orthogonalEdgeStyle;rounded=0;orthogonalLoop=1;jettySize=auto;html=1;shape=flexArrow;fontFamily=Lucida Console;entryX=0.5;entryY=0;entryDx=0;entryDy=0;exitX=0.5;exitY=1;exitDx=0;exitDy=0;" edge="1" parent="1" source="7dNYX3P94OAqA5TKhD5H-5" target="7dNYX3P94OAqA5TKhD5H-6">
          <mxGeometry relative="1" as="geometry">
            <mxPoint x="149" y="497" as="sourcePoint" />
            <mxPoint x="149" y="562" as="targetPoint" />
          </mxGeometry>
        </mxCell>
        <mxCell id="7dNYX3P94OAqA5TKhD5H-10" value="&lt;font face=&quot;Lucida Console&quot;&gt;ImageReader&lt;br&gt;TextureView&lt;/font&gt;" style="whiteSpace=wrap;html=1;rounded=1;arcSize=50;align=center;verticalAlign=middle;strokeWidth=1;autosize=1;spacing=4;treeFolding=1;treeMoving=1;newEdgeStyle={&quot;edgeStyle&quot;:&quot;entityRelationEdgeStyle&quot;,&quot;startArrow&quot;:&quot;none&quot;,&quot;endArrow&quot;:&quot;none&quot;,&quot;segment&quot;:10,&quot;curved&quot;:1,&quot;sourcePerimeterSpacing&quot;:0,&quot;targetPerimeterSpacing&quot;:0};" vertex="1" parent="1">
          <mxGeometry x="-44" y="880" width="145" height="56" as="geometry" />
        </mxCell>
        <mxCell id="7dNYX3P94OAqA5TKhD5H-11" value="" style="edgeStyle=entityRelationEdgeStyle;startArrow=none;endArrow=none;segment=10;curved=1;sourcePerimeterSpacing=0;targetPerimeterSpacing=0;rounded=0;exitX=0;exitY=0.5;exitDx=0;exitDy=0;entryX=0.5;entryY=1;entryDx=0;entryDy=0;" edge="1" target="7dNYX3P94OAqA5TKhD5H-10" parent="1" source="O8v1P4nGRKo8pIatumZE-7">
          <mxGeometry relative="1" as="geometry">
            <mxPoint x="90" y="962" as="sourcePoint" />
          </mxGeometry>
        </mxCell>
        <mxCell id="7dNYX3P94OAqA5TKhD5H-12" value="CaptureSession&lt;font size=&quot;1&quot;&gt;.StateCallback&lt;/font&gt;&lt;br&gt;OnConfigured()" style="whiteSpace=wrap;html=1;fillColor=#dae8fc;strokeColor=#6c8ebf;fontFamily=Lucida Console;" vertex="1" parent="1">
          <mxGeometry x="276" y="504" width="277" height="56" as="geometry" />
        </mxCell>
        <mxCell id="7dNYX3P94OAqA5TKhD5H-17" value="" style="edgeStyle=elbowEdgeStyle;elbow=horizontal;endArrow=classic;html=1;curved=0;rounded=0;endSize=8;startSize=8;exitX=1;exitY=0.5;exitDx=0;exitDy=0;entryX=0;entryY=0.5;entryDx=0;entryDy=0;" edge="1" parent="1" source="O8v1P4nGRKo8pIatumZE-7" target="7dNYX3P94OAqA5TKhD5H-12">
          <mxGeometry width="50" height="50" relative="1" as="geometry">
            <mxPoint x="268" y="720" as="sourcePoint" />
            <mxPoint x="313" y="500" as="targetPoint" />
            <Array as="points">
              <mxPoint x="254" y="759" />
            </Array>
          </mxGeometry>
        </mxCell>
        <mxCell id="7dNYX3P94OAqA5TKhD5H-18" value="" style="edgeStyle=orthogonalEdgeStyle;rounded=0;orthogonalLoop=1;jettySize=auto;html=1;shape=flexArrow;fontFamily=Lucida Console;exitX=0.5;exitY=1;exitDx=0;exitDy=0;entryX=0.5;entryY=0;entryDx=0;entryDy=0;" edge="1" parent="1" source="7dNYX3P94OAqA5TKhD5H-12" target="O8v1P4nGRKo8pIatumZE-12">
          <mxGeometry relative="1" as="geometry">
            <mxPoint x="466" y="579" as="sourcePoint" />
            <mxPoint x="466" y="629" as="targetPoint" />
          </mxGeometry>
        </mxCell>
        <mxCell id="7dNYX3P94OAqA5TKhD5H-19" value="SetRepeating&lt;br&gt;Request" style="whiteSpace=wrap;html=1;fillColor=#dae8fc;strokeColor=#6c8ebf;fontFamily=Lucida Console;" vertex="1" parent="1">
          <mxGeometry x="344.5" y="755" width="140" height="52" as="geometry" />
        </mxCell>
        <mxCell id="7dNYX3P94OAqA5TKhD5H-20" value="" style="edgeStyle=orthogonalEdgeStyle;rounded=0;orthogonalLoop=1;jettySize=auto;html=1;shape=flexArrow;fontFamily=Lucida Console;exitX=0.5;exitY=1;exitDx=0;exitDy=0;entryX=0.5;entryY=0;entryDx=0;entryDy=0;" edge="1" parent="1" source="7dNYX3P94OAqA5TKhD5H-19" target="O8v1P4nGRKo8pIatumZE-13">
          <mxGeometry relative="1" as="geometry">
            <mxPoint x="426" y="827" as="sourcePoint" />
            <mxPoint x="426" y="872" as="targetPoint" />
          </mxGeometry>
        </mxCell>
      </root>
    </mxGraphModel>
  </diagram>
</mxfile>
